<svg width="16" height="18" viewBox="0 0 16 18" fill="none" xmlns="http://www.w3.org/2000/svg">
<path d="M0 7.02707C0 5.8152 0.254325 4.66691 0.762974 3.58221C1.27162 2.4975 1.9972 1.57363 2.93969 0.810602L3.85975 1.8205C3.06685 2.46384 2.44974 3.23809 2.00842 4.14326C1.56709 5.04843 1.34642 6.0097 1.34642 7.02707H0ZM14.6536 7.02707C14.6536 6.0097 14.4441 5.04843 14.0252 4.14326C13.6064 3.23809 13.0005 2.46384 12.2076 1.8205L13.1276 0.810602C14.0552 1.5886 14.7658 2.5162 15.2595 3.59343C15.7532 4.67065 16 5.8152 16 7.02707H14.6536ZM0.807854 15.2633V13.9168H2.69285V7.04952C2.69285 5.79276 3.06311 4.67439 3.80365 3.69442C4.54418 2.71444 5.52034 2.09728 6.73212 1.84294V1.19212C6.73212 0.848006 6.85554 0.563739 7.10239 0.339318C7.34923 0.114896 7.64469 0.00268555 7.98878 0.00268555C8.33287 0.00268555 8.62833 0.114896 8.87518 0.339318C9.12202 0.563739 9.24544 0.848006 9.24544 1.19212V1.84294C10.4572 2.09728 11.4371 2.71444 12.1851 3.69442C12.9331 4.67439 13.3072 5.79276 13.3072 7.04952V13.9168H15.1697V15.2633H0.807854ZM7.98878 17.9564C7.51005 17.9564 7.09117 17.7806 6.73212 17.429C6.37307 17.0774 6.19355 16.6547 6.19355 16.161H9.78401C9.78401 16.6547 9.60823 17.0774 9.25666 17.429C8.9051 17.7806 8.48247 17.9564 7.98878 17.9564ZM4.03927 13.9168H11.9607V7.04952C11.9607 5.94237 11.5792 4.9998 10.8163 4.22181C10.0533 3.44381 9.11828 3.05482 8.01122 3.05482C6.90416 3.05482 5.9654 3.44381 5.19495 4.22181C4.4245 4.9998 4.03927 5.94237 4.03927 7.04952V13.9168Z" fill="#808080"/>
</svg>
